solid OpenSCAD_Model
  facet normal -1 0 0
    outer loop
      vertex 0 0 0
      vertex 0 0 36
      vertex 0 21.5 4
    endloop
  endfacet
  facet normal -1 0 0
    outer loop
      vertex 0 0 0
      vertex 0 21.5 4
      vertex 0 57 0
    endloop
  endfacet
  facet normal -1 0 0
    outer loop
      vertex 0 0 36
      vertex 0 21.5 16
      vertex 0 21.5 4
    endloop
  endfacet
  facet normal 0 0 1
    outer loop
      vertex 0 0 36
      vertex 2.5 2.5 36
      vertex 2.5 54.5 36
    endloop
  endfacet
  facet normal -1 0 0
    outer loop
      vertex 0 0 36
      vertex 0 57 36
      vertex 0 21.5 16
    endloop
  endfacet
  facet normal 0 -1 0
    outer loop
      vertex 0 0 0
      vertex 97 0 36
      vertex 0 0 36
    endloop
  endfacet
  facet normal 0 0 1
    outer loop
      vertex 0 0 36
      vertex 97 0 36
      vertex 2.5 2.5 36
    endloop
  endfacet
  facet normal -1 0 0
    outer loop
      vertex 0 57 0
      vertex 0 21.5 4
      vertex 0 35.5 4
    endloop
  endfacet
  facet normal -1 0 0
    outer loop
      vertex 0 57 0
      vertex 0 35.5 4
      vertex 0 35.5 16
    endloop
  endfacet
  facet normal -1 0 0
    outer loop
      vertex 0 57 0
      vertex 0 35.5 16
      vertex 0 57 36
    endloop
  endfacet
  facet normal 0 0 -1
    outer loop
      vertex 0 0 0
      vertex 0 57 0
      vertex 97 57 0
    endloop
  endfacet
  facet normal 0 1 0
    outer loop
      vertex 0 57 0
      vertex 0 57 36
      vertex 97 57 0
    endloop
  endfacet
  facet normal -1 0 0
    outer loop
      vertex 0 57 36
      vertex 0 35.5 16
      vertex 0 21.5 16
    endloop
  endfacet
  facet normal 0 0 1
    outer loop
      vertex 0 0 36
      vertex 2.5 54.5 36
      vertex 0 57 36
    endloop
  endfacet
  facet normal 0 0 1
    outer loop
      vertex 0 57 36
      vertex 2.5 54.5 36
      vertex 94.5 54.5 36
    endloop
  endfacet
  facet normal 0 -1 0
    outer loop
      vertex 0 0 0
      vertex 97 0 0
      vertex 97 0 36
    endloop
  endfacet
  facet normal 0 0 -1
    outer loop
      vertex 0 0 0
      vertex 97 57 0
      vertex 97 0 0
    endloop
  endfacet
  facet normal 1 0 0
    outer loop
      vertex 97 0 0
      vertex 97 57 0
      vertex 97 0 36
    endloop
  endfacet
  facet normal 0 0 1
    outer loop
      vertex 97 0 36
      vertex 94.5 2.5 36
      vertex 2.5 2.5 36
    endloop
  endfacet
  facet normal 0 0 1
    outer loop
      vertex 97 0 36
      vertex 97 57 36
      vertex 94.5 2.5 36
    endloop
  endfacet
  facet normal 0 1 0
    outer loop
      vertex 0 57 36
      vertex 97 57 36
      vertex 97 57 0
    endloop
  endfacet
  facet normal 0 0 1
    outer loop
      vertex 0 57 36
      vertex 94.5 54.5 36
      vertex 97 57 36
    endloop
  endfacet
  facet normal 1 0 0
    outer loop
      vertex 97 0 36
      vertex 97 57 0
      vertex 97 57 36
    endloop
  endfacet
  facet normal 0 0 1
    outer loop
      vertex 97 57 36
      vertex 94.5 54.5 36
      vertex 94.5 2.5 36
    endloop
  endfacet
  facet normal 1 0 0
    outer loop
      vertex 2.5 2.5 2
      vertex 2.5 21.5 4
      vertex 2.5 21.5 16
    endloop
  endfacet
  facet normal 1 0 0
    outer loop
      vertex 2.5 2.5 2
      vertex 2.5 54.5 2
      vertex 2.5 21.5 4
    endloop
  endfacet
  facet normal 0 1 0
    outer loop
      vertex 2.5 2.5 2
      vertex 2.5 2.5 36
      vertex 94.5 2.5 2
    endloop
  endfacet
  facet normal 1 0 0
    outer loop
      vertex 2.5 2.5 2
      vertex 2.5 21.5 16
      vertex 2.5 2.5 36
    endloop
  endfacet
  facet normal 1 0 0
    outer loop
      vertex 2.5 21.5 16
      vertex 2.5 54.5 36
      vertex 2.5 2.5 36
    endloop
  endfacet
  facet normal 1 0 0
    outer loop
      vertex 2.5 21.5 4
      vertex 2.5 54.5 2
      vertex 2.5 35.5 4
    endloop
  endfacet
  facet normal 1 0 0
    outer loop
      vertex 2.5 35.5 4
      vertex 2.5 54.5 2
      vertex 2.5 35.5 16
    endloop
  endfacet
  facet normal 0 0 1
    outer loop
      vertex 2.5 2.5 2
      vertex 94.5 54.5 2
      vertex 2.5 54.5 2
    endloop
  endfacet
  facet normal 1 0 0
    outer loop
      vertex 2.5 21.5 16
      vertex 2.5 35.5 16
      vertex 2.5 54.5 36
    endloop
  endfacet
  facet normal 1 0 0
    outer loop
      vertex 2.5 35.5 16
      vertex 2.5 54.5 2
      vertex 2.5 54.5 36
    endloop
  endfacet
  facet normal 0 -1 0
    outer loop
      vertex 2.5 54.5 2
      vertex 94.5 54.5 36
      vertex 2.5 54.5 36
    endloop
  endfacet
  facet normal 0 0 1
    outer loop
      vertex 2.5 2.5 2
      vertex 94.5 2.5 2
      vertex 94.5 54.5 2
    endloop
  endfacet
  facet normal -1 0 0
    outer loop
      vertex 94.5 2.5 2
      vertex 94.5 2.5 36
      vertex 94.5 54.5 2
    endloop
  endfacet
  facet normal 0 1 0
    outer loop
      vertex 94.5 2.5 2
      vertex 2.5 2.5 36
      vertex 94.5 2.5 36
    endloop
  endfacet
  facet normal 0 -1 0
    outer loop
      vertex 2.5 54.5 2
      vertex 94.5 54.5 2
      vertex 94.5 54.5 36
    endloop
  endfacet
  facet normal -1 0 0
    outer loop
      vertex 94.5 54.5 2
      vertex 94.5 2.5 36
      vertex 94.5 54.5 36
    endloop
  endfacet
  facet normal 0 0 1
    outer loop
      vertex 2.5 21.5 4
      vertex 0 35.5 4
      vertex 0 21.5 4
    endloop
  endfacet
  facet normal 0 1 0
    outer loop
      vertex 2.5 21.5 4
      vertex 0 21.5 4
      vertex 2.5 21.5 16
    endloop
  endfacet
  facet normal 0 1 0
    outer loop
      vertex 2.5 21.5 16
      vertex 0 21.5 4
      vertex 0 21.5 16
    endloop
  endfacet
  facet normal 0 0 -1
    outer loop
      vertex 2.5 21.5 16
      vertex 0 21.5 16
      vertex 2.5 35.5 16
    endloop
  endfacet
  facet normal 0 0 1
    outer loop
      vertex 2.5 21.5 4
      vertex 2.5 35.5 4
      vertex 0 35.5 4
    endloop
  endfacet
  facet normal 0 -1 0
    outer loop
      vertex 2.5 35.5 4
      vertex 0 35.5 16
      vertex 0 35.5 4
    endloop
  endfacet
  facet normal 0 -1 0
    outer loop
      vertex 2.5 35.5 4
      vertex 2.5 35.5 16
      vertex 0 35.5 16
    endloop
  endfacet
  facet normal 0 0 -1
    outer loop
      vertex 2.5 35.5 16
      vertex 0 21.5 16
      vertex 0 35.5 16
    endloop
  endfacet
endsolid OpenSCAD_Model
